<?xml version="1.0" encoding="UTF-8"?>
<svg version="1.1" xmlns="http://www.w3.org/2000/svg" width="1000" height="250">
<path d="M0 0 C0.8125 2.625 0.8125 2.625 1 5 C1.70125 4.401875 2.4025 3.80375 3.125 3.1875 C8.28110574 -0.73562393 12.33991957 -2.57780625 18.81640625 -2.359375 C22.24547271 -1.79502059 24.39552608 -0.2233314 27 2 C29.69739007 6.04608511 29.64981493 9.25135247 29 14 C27.47054871 17.05890258 26.41586492 18.49089112 23.1640625 19.66015625 C19.2325136 20.43592165 17.28124543 20.12783883 13.5625 18.4375 C10.57276453 15.59360529 10.18425479 14.05360528 10 10 C6.33804401 12.67223816 3.97718505 14.9072588 2 19 C1.49805995 22.575624 1.49805995 22.575624 1.48828125 26.48828125 C1.46135445 27.5430793 1.46135445 27.5430793 1.43388367 28.6191864 C1.3799952 30.85023117 1.34595588 33.0810647 1.3125 35.3125 C1.27930776 36.83140947 1.24481633 38.35029114 1.20898438 39.86914062 C1.12428305 43.57922416 1.05736926 47.2893817 1 51 C1.93972656 51.09087891 1.93972656 51.09087891 2.8984375 51.18359375 C3.71570313 51.26738281 4.53296875 51.35117188 5.375 51.4375 C6.18710937 51.51871094 6.99921875 51.59992188 7.8359375 51.68359375 C10 52 10 52 12 53 C12.8125 55.375 12.8125 55.375 13 58 C12.0222168 59.65942383 12.0222168 59.65942383 10 61 C7.19147706 61.19167403 4.62725971 61.20948674 1.83203125 61.07421875 C0.63981209 61.03455742 0.63981209 61.03455742 -0.57649231 60.99409485 C-3.11426039 60.90634586 -5.65059498 60.79719492 -8.1875 60.6875 C-9.90815181 60.62423955 -11.6288555 60.56237354 -13.34960938 60.50195312 C-17.56717861 60.3508078 -21.78358763 60.18046409 -26 60 C-26.33 58.35 -26.66 56.7 -27 55 C-27.72316406 55.63228516 -27.72316406 55.63228516 -28.4609375 56.27734375 C-29.09257812 56.82519531 -29.72421875 57.37304688 -30.375 57.9375 C-31.00148438 58.48277344 -31.62796875 59.02804688 -32.2734375 59.58984375 C-36.57865075 63.10609258 -41.68462588 62.43846067 -47 62 C-50.40542857 60.510125 -52.42929411 58.6072216 -55 56 C-55.53109375 56.34933594 -56.0621875 56.69867188 -56.609375 57.05859375 C-57.66898437 57.74115234 -57.66898437 57.74115234 -58.75 58.4375 C-59.44609375 58.88996094 -60.1421875 59.34242188 -60.859375 59.80859375 C-66.40007536 62.89237771 -72.83110182 62.58212407 -79 62 C-83.7902292 60.4344544 -87.63847052 57.43967543 -90 53 C-90.90677607 47.55934361 -90.77122182 42.57824773 -88.0625 37.6875 C-81.33432611 28.5803033 -70.55267111 25.53713156 -60 23 C-57.015625 22.8671875 -57.015625 22.8671875 -55 23 C-55.19491014 16.41705842 -55.19491014 16.41705842 -57.5 10.375 C-61.2540633 8.31026518 -64.80819378 8.67755337 -69 9 C-69.02578125 9.58007812 -69.0515625 10.16015625 -69.078125 10.7578125 C-69.46586767 16.09808651 -70.00160124 20.10156121 -74 24 C-77.19307633 24.87734995 -79.80081915 24.8353101 -83 24 C-86.81495415 21.02433576 -86.81495415 21.02433576 -88 18 C-88.53405404 13.2435812 -87.75946097 10.00516893 -84.875 6.1875 C-75.18824577 -1.18285648 -65.88664276 -2.06063649 -54 -1 C-47.51969863 0.50604614 -43.69997626 3.56565987 -40 9 C-38.71225554 12.86323338 -38.76617207 16.57490537 -38.68359375 20.60546875 C-38.66281265 21.44467361 -38.64203156 22.28387848 -38.62062073 23.14851379 C-38.55525982 25.82809294 -38.49630286 28.50776969 -38.4375 31.1875 C-38.39430198 33.00456737 -38.35068727 34.82162488 -38.30664062 36.63867188 C-38.1995922 41.09234799 -38.09828681 45.54612226 -38 50 C-34.87802522 48.6910428 -34.87802522 48.6910428 -33 46 C-31.35 46.33 -29.7 46.66 -28 47 C-27.34 48.98 -26.68 50.96 -26 53 C-22.7 52.34 -19.4 51.68 -16 51 C-16 37.8 -16 24.6 -16 11 C-18.97 11 -21.94 11 -25 11 C-25.66 10.34 -26.32 9.68 -27 9 C-26.625 5.875 -26.625 5.875 -26 3 C-22.61027513 2.10007304 -19.21266646 1.23455492 -15.8125 0.375 C-14.85279297 0.11976562 -13.89308594 -0.13546875 -12.90429688 -0.3984375 C-11.50727539 -0.74648437 -11.50727539 -0.74648437 -10.08203125 -1.1015625 C-9.22843018 -1.32150879 -8.3748291 -1.54145508 -7.49536133 -1.76806641 C-4.42088912 -2.05382598 -2.69435287 -1.47221774 0 0 Z M-70.0625 37.1875 C-72.81423135 41.18194873 -72.69465477 43.21460047 -72 48 C-70.51869332 50.23608998 -70.51869332 50.23608998 -68 51 C-62.33391707 51 -58.54761923 48.05788189 -54 45 C-54.495 38.565 -54.495 38.565 -55 32 C-60.64011388 32 -65.5045385 33.93181322 -70.0625 37.1875 Z " fill="#DDE0DD" transform="translate(355,90)"/>
<path d="M0 0 C1.00872665 -0.01283524 2.01745331 -0.02567047 3.05674744 -0.03889465 C4.70810448 -0.04997505 4.70810448 -0.04997505 6.39282227 -0.0612793 C7.52188492 -0.06935104 8.65094757 -0.07742279 9.81422424 -0.08573914 C12.21434992 -0.0996066 14.61449553 -0.11031676 17.01464844 -0.11816406 C20.66258152 -0.13527919 24.30958541 -0.17913079 27.95727539 -0.22338867 C30.28995102 -0.23352381 32.62263436 -0.24203733 34.95532227 -0.2487793 C36.03800888 -0.26628738 37.1206955 -0.28379547 38.2361908 -0.30183411 C46.03817688 -0.27982531 53.58145875 0.78732608 59.52563477 6.24731445 C60.17338867 7.26438477 60.17338867 7.26438477 60.83422852 8.30200195 C61.28926758 8.98520508 61.74430664 9.6684082 62.21313477 10.37231445 C65.01057386 15.14138036 64.81893444 19.73577116 64.27172852 25.17700195 C61.91236713 30.07721406 58.49576349 32.91297493 54.27172852 36.17700195 C56.5514611 37.9306424 58.82904422 39.52532427 61.27172852 41.05200195 C65.25568965 43.87397442 67.7216185 46.52667191 69.27172852 51.17700195 C69.74080724 56.93667353 70.12879754 62.29145009 67.70922852 67.61450195 C60.42595105 75.27128082 53.28969429 80.12087097 42.39477539 80.73876953 C40.26035716 80.78614214 38.12540494 80.81289957 35.99047852 80.8215332 C34.855177 80.84044113 33.71987549 80.85934906 32.5501709 80.87882996 C30.17036658 80.91511146 27.79040871 80.94235378 25.41040039 80.9609375 C21.7542944 80.98963882 18.09931854 81.04477046 14.44360352 81.10473633 C12.12591569 81.13685087 9.80820702 81.1675026 7.49047852 81.1965332 C6.39473511 81.21102005 5.2989917 81.2255069 4.17004395 81.24043274 C2.65706726 81.25121101 2.65706726 81.25121101 1.11352539 81.26220703 C0.22435425 81.27012772 -0.66481689 81.2780484 -1.58093262 81.28620911 C-3.72827148 81.17700195 -3.72827148 81.17700195 -5.72827148 80.17700195 C-5.72827148 77.86700195 -5.72827148 75.55700195 -5.72827148 73.17700195 C-1.85143061 71.98412784 1.18794775 71.17700195 5.27172852 71.17700195 C5.27172852 50.71700195 5.27172852 30.25700195 5.27172852 9.17700195 C2.30172852 8.84700195 -0.66827148 8.51700195 -3.72827148 8.17700195 C-4.38827148 7.84700195 -5.04827148 7.51700195 -5.72827148 7.17700195 C-5.77081505 5.17745449 -5.76907931 3.17658559 -5.72827148 1.17700195 C-4.09676811 -0.45450142 -2.25217036 0.02487215 0 0 Z M23.27172852 8.17700195 C23.27172852 16.42700195 23.27172852 24.67700195 23.27172852 33.17700195 C34.25851079 33.63445813 34.25851079 33.63445813 43.27172852 29.17700195 C46.10708635 24.92396519 46.03262611 21.16942187 45.27172852 16.17700195 C43.00714078 11.58232187 40.03512189 10.0823593 35.27172852 8.17700195 C31.31172852 8.17700195 27.35172852 8.17700195 23.27172852 8.17700195 Z M23.27172852 43.17700195 C23.17189794 45.16457223 23.14092098 47.15567715 23.13891602 49.14575195 C23.13762695 50.35618164 23.13633789 51.56661133 23.13500977 52.8137207 C23.13887695 54.08860352 23.14274414 55.36348633 23.14672852 56.67700195 C23.14286133 57.95188477 23.13899414 59.22676758 23.13500977 60.5402832 C23.13629883 61.75071289 23.13758789 62.96114258 23.13891602 64.20825195 C23.14004395 65.32780273 23.14117188 66.44735352 23.14233398 67.60083008 C22.97956484 70.10841997 22.97956484 70.10841997 24.27172852 71.17700195 C26.68313572 71.33161746 29.04623422 71.40870437 31.45922852 71.42700195 C33.42956055 71.46567383 33.42956055 71.46567383 35.43969727 71.50512695 C40.53855182 71.06852779 43.5946661 69.45929676 47.61157227 66.38793945 C50.92213403 61.97905015 49.98685094 56.40389675 49.27172852 51.17700195 C48.09511798 47.88249244 47.27429386 47.4142075 44.27172852 45.17700195 C39.65758078 43.27576834 27.41522263 39.03350784 23.27172852 43.17700195 Z " fill="#DEDFDE" transform="translate(536.728271484375,69.822998046875)"/>
<path d="M0 0 C1.47749003 2.95498007 1.16565337 5.63003769 1.20532227 8.92822266 C1.21522186 9.64052536 1.22512146 10.35282806 1.23532104 11.0867157 C1.26695858 13.44579726 1.2917023 15.80489897 1.31640625 18.1640625 C1.33697384 19.79788747 1.35797026 21.43170708 1.37937927 23.06552124 C1.43462013 27.36942216 1.4840205 31.67337126 1.53222656 35.97735596 C1.5824269 40.36776018 1.63812061 44.75809429 1.69335938 49.1484375 C1.80096558 57.76556575 1.90240506 66.38275258 2 75 C3.134375 75.28875 4.26875 75.5775 5.4375 75.875 C7.2009375 76.431875 7.2009375 76.431875 9 77 C10.35439668 79.70879335 10.06501451 82.00933268 10 85 C9.43152344 85.12117188 8.86304688 85.24234375 8.27734375 85.3671875 C4.60224135 86.16478902 1.02777272 86.99122967 -2.5625 88.125 C-6.57592627 89.14659941 -9.8740816 89.14476907 -14 89 C-14.33 88.01 -14.66 87.02 -15 86 C-15.763125 86.474375 -16.52625 86.94875 -17.3125 87.4375 C-23.94399878 91.29302255 -33.13999283 91.18297849 -40.51953125 89.38671875 C-47.73950731 86.1541062 -53.11504355 79.21239113 -56 72 C-58.51240065 61.844982 -58.17772741 49.23323454 -53.375 39.8125 C-47.27818462 32.59258705 -40.49024427 27.08375329 -30.8671875 25.69140625 C-26.01375946 25.52962532 -21.61890479 26.68031292 -17 28 C-16.67 23.05 -16.34 18.1 -16 13 C-18.31 13 -20.62 13 -23 13 C-26 11 -26 11 -26.5 8.5625 C-26 6 -26 6 -23.86328125 4.4453125 C-16.55648301 0.75702417 -8.11583549 -0.47740209 0 0 Z M-32 37 C-37.80064807 42.96177718 -39.00015355 49.74411278 -39.1875 57.8125 C-39.06353018 66.05649335 -38.03272175 72.1144178 -32 78 C-27.55159942 79.48280019 -23.61747696 79.4922756 -19.125 78.125 C-16.8498468 77.18405876 -16.8498468 77.18405876 -16 75 C-15.91324462 72.30106819 -15.88442103 69.62830769 -15.90234375 66.9296875 C-15.9037587 66.13345978 -15.90517365 65.33723206 -15.90663147 64.51687622 C-15.91223655 61.9695462 -15.92478986 59.42230353 -15.9375 56.875 C-15.94251435 55.14974085 -15.94707737 53.42448033 -15.95117188 51.69921875 C-15.96220763 47.46611209 -15.97947564 43.23307086 -16 39 C-17.47815662 38.3310968 -18.95755472 37.66493641 -20.4375 37 C-21.26121094 36.62875 -22.08492187 36.2575 -22.93359375 35.875 C-26.40449345 34.40528065 -28.51895448 35.56662832 -32 37 Z " fill="#DDDFDD" transform="translate(252,62)"/>
<path d="M0 0 C0.99193359 -0.00960754 1.98386719 -0.01921509 3.00585938 -0.02911377 C4.08802734 -0.03336365 5.17019531 -0.03761353 6.28515625 -0.04199219 C7.39439453 -0.04769226 8.50363281 -0.05339233 9.64648438 -0.05926514 C12.00373373 -0.06873682 14.36099646 -0.07525767 16.71826172 -0.07910156 C20.30460286 -0.08875134 23.89035741 -0.11973147 27.4765625 -0.15136719 C29.76692368 -0.1579026 32.05728897 -0.16315095 34.34765625 -0.16699219 C35.41363037 -0.17933899 36.47960449 -0.19168579 37.57788086 -0.20440674 C44.99703998 -0.18251655 51.66588368 0.59073122 57.87109375 4.92285156 C63.62812254 10.91064733 66.36364975 15.80764041 66.78515625 24.16113281 C66.56561248 30.6576326 64.16020453 35.0623927 59.97265625 39.91113281 C51.64874243 47.04591609 43.95338536 48.39381008 33.34765625 48.78613281 C30.37765625 48.90988281 27.40765625 49.03363281 24.34765625 49.16113281 C24.34765625 56.09113281 24.34765625 63.02113281 24.34765625 70.16113281 C26.91858707 71.01810975 29.39248553 71.64913918 32.03515625 72.22363281 C32.84339844 72.40023437 33.65164062 72.57683594 34.484375 72.75878906 C35.09925781 72.8915625 35.71414062 73.02433594 36.34765625 73.16113281 C36.34765625 75.47113281 36.34765625 77.78113281 36.34765625 80.16113281 C28.74291994 81.22935664 21.20052165 81.31466849 13.53393555 81.29150391 C11.39039233 81.28608283 9.24705298 81.29150901 7.10351562 81.29785156 C5.73828079 81.29719178 4.37304608 81.2959127 3.0078125 81.29394531 C1.77683838 81.29281738 0.54586426 81.29168945 -0.72241211 81.29052734 C-3.65234375 81.16113281 -3.65234375 81.16113281 -5.65234375 80.16113281 C-5.77734375 77.28613281 -5.77734375 77.28613281 -5.65234375 74.16113281 C-3.65234375 72.16113281 -3.65234375 72.16113281 5.34765625 70.16113281 C5.34765625 50.36113281 5.34765625 30.56113281 5.34765625 10.16113281 C1.71765625 9.17113281 -1.91234375 8.18113281 -5.65234375 7.16113281 C-5.69488731 5.16158535 -5.69315158 3.16071645 -5.65234375 1.16113281 C-4.03131807 -0.45989286 -2.23992331 0.01744633 0 0 Z M23.34765625 8.16113281 C23.34765625 18.39113281 23.34765625 28.62113281 23.34765625 39.16113281 C31.24221726 40.40654988 31.24221726 40.40654988 37.72265625 38.41113281 C38.53476563 38.06566406 39.346875 37.72019531 40.18359375 37.36425781 C43.67206684 35.4248179 45.07746097 33.97171867 46.34765625 30.16113281 C46.49320458 28.03948602 46.56846037 25.91256575 46.59765625 23.78613281 C46.6234375 22.66464844 46.64921875 21.54316406 46.67578125 20.38769531 C46.30912606 16.78225265 45.56050702 15.00693865 43.34765625 12.16113281 C37.03709946 7.57283215 31.18942047 8.16113281 23.34765625 8.16113281 Z " fill="#DFE1DF" transform="translate(59.65234375,69.8388671875)"/>
<path d="M0 0 C4.20794248 3.40216626 7.44361987 7.41974071 8.29891968 12.92352295 C8.4401731 15.10637776 8.49324281 17.27361342 8.51171875 19.4609375 C8.52966995 20.25150543 8.54762115 21.04207336 8.56611633 21.8565979 C8.61996706 24.36267891 8.65403281 26.86857227 8.6875 29.375 C8.72069548 31.08205722 8.75518719 32.78908976 8.79101562 34.49609375 C8.87567852 38.66392653 8.94260907 42.8317061 9 47 C9.99 47.33 10.98 47.66 12 48 C12.66 46.68 13.32 45.36 14 44 C15.875 44.1875 15.875 44.1875 18 45 C19.73403099 47.83750526 20.15440049 49.29661998 19.4375 52.5625 C17.36340056 56.07945122 14.63014715 58.18492643 11 60 C1.1047977 61.0369224 1.1047977 61.0369224 -3.125 58.953125 C-4.75 57.625 -4.75 57.625 -7 55 C-7 54.34 -7 53.68 -7 53 C-7.68707031 53.42152344 -8.37414062 53.84304687 -9.08203125 54.27734375 C-9.98308594 54.82519531 -10.88414062 55.37304688 -11.8125 55.9375 C-12.70582031 56.48277344 -13.59914063 57.02804688 -14.51953125 57.58984375 C-20.33012034 60.89318652 -26.48596185 60.57027954 -33 60 C-36.5 58.375 -36.5 58.375 -39 56 C-39.94875 55.13375 -40.8975 54.2675 -41.875 53.375 C-44.7589834 48.79455578 -44.76697487 45.27402943 -44 40 C-41.83458392 33.37637435 -36.85944355 29.45775554 -30.8125 26.375 C-29.54873774 25.89751517 -28.27652252 25.44224095 -27 25 C-26.04351562 24.64808594 -25.08703125 24.29617187 -24.1015625 23.93359375 C-18.85004241 22.07286996 -14.626023 20.75757107 -9 21 C-9.08768248 19.4156683 -9.19587329 17.83246433 -9.3125 16.25 C-9.37050781 15.36828125 -9.42851562 14.4865625 -9.48828125 13.578125 C-10.0869528 10.56191719 -10.76576384 9.11664479 -13 7 C-15.50880616 6.51738333 -15.50880616 6.51738333 -18.1875 6.75 C-19.08855469 6.78609375 -19.98960937 6.8221875 -20.91796875 6.859375 C-21.60503906 6.90578125 -22.29210937 6.9521875 -23 7 C-23.03738281 7.59167969 -23.07476562 8.18335937 -23.11328125 8.79296875 C-23.51054897 13.56797099 -23.95668 17.1045504 -27 21 C-30.24669341 22.62334671 -33.50286478 22.69541503 -37 22 C-40.54267741 18.97396305 -41.82195182 17.10785537 -42.5625 12.5 C-41.86949933 8.18799584 -40.91476862 6.2702282 -38 3 C-26.49577391 -5.03963291 -12.48153522 -7.04380756 0 0 Z M-23.5 35.0625 C-26.12751646 38.45637542 -26.42840692 40.71593081 -26 45 C-24.12498069 47.37719693 -24.12498069 47.37719693 -22 49 C-20.58034858 48.57228451 -19.1643776 48.13234457 -17.75 47.6875 C-16.96109375 47.44386719 -16.1721875 47.20023438 -15.359375 46.94921875 C-12.70482469 45.88124569 -10.98015561 45.0881641 -9 43 C-8.51533634 39.80197224 -8.51533634 39.80197224 -8.75 36.3125 C-8.80414063 34.54326172 -8.80414063 34.54326172 -8.859375 32.73828125 C-8.90578125 31.83464844 -8.9521875 30.93101563 -9 30 C-14.32775269 30 -19.38753119 31.66971323 -23.5 35.0625 Z " fill="#DDE0DD" transform="translate(473,92)"/>
<path d="M0 0 C4.74442885 2.63239278 7.71696644 6.22902433 9.421875 11.34375 C9.5758013 14.14535502 9.67925545 16.92673425 9.73828125 19.73046875 C9.75906235 20.54747757 9.77984344 21.36448639 9.80125427 22.20625305 C9.86660579 24.81450034 9.92556773 27.42284775 9.984375 30.03125 C10.02757392 31.80014054 10.07118865 33.56902097 10.11523438 35.33789062 C10.22227243 39.67307463 10.32358044 44.00835929 10.421875 48.34375 C12.39724245 47.99588292 12.39724245 47.99588292 14.421875 47.34375 C14.916875 46.35375 14.916875 46.35375 15.421875 45.34375 C17.796875 45.65625 17.796875 45.65625 20.421875 46.34375 C22.421875 49.34375 22.421875 49.34375 22.421875 52.21875 C21.0293332 56.57044313 19.14455425 57.73787453 15.421875 60.34375 C10.75701811 61.8987023 6.28263761 62.07682697 1.421875 61.34375 C-1.6262343 59.71015392 -4.09226185 57.73701653 -6.578125 55.34375 C-7.20976563 55.776875 -7.84140625 56.21 -8.4921875 56.65625 C-16.05526716 61.36410362 -22.71570886 62.75517183 -31.578125 61.34375 C-36.56958532 58.89779223 -40.07412073 55.35175854 -42.578125 50.34375 C-42.95643392 44.66911613 -42.65705309 41.2920273 -39.578125 36.34375 C-38.8046875 35.0753125 -38.8046875 35.0753125 -38.015625 33.78125 C-30.13617696 25.90180196 -18.01659179 24.01590653 -7.578125 21.34375 C-7.66546076 19.73857903 -7.77364724 18.13453338 -7.890625 16.53125 C-7.94863281 15.63792969 -8.00664063 14.74460937 -8.06640625 13.82421875 C-8.65736033 10.95967036 -9.17243257 9.98521799 -11.578125 8.34375 C-13.82546274 7.94510272 -13.82546274 7.94510272 -16.203125 8.09375 C-16.99976563 8.10921875 -17.79640625 8.1246875 -18.6171875 8.140625 C-20.58023757 8.13570019 -20.58023757 8.13570019 -21.578125 9.34375 C-21.86101681 11.59790378 -22.0258369 13.85215656 -22.19921875 16.1171875 C-22.578125 18.34375 -22.578125 18.34375 -24.578125 21.34375 C-25.238125 21.34375 -25.898125 21.34375 -26.578125 21.34375 C-26.578125 22.00375 -26.578125 22.66375 -26.578125 23.34375 C-29.548125 23.34375 -32.518125 23.34375 -35.578125 23.34375 C-35.908125 22.35375 -36.238125 21.36375 -36.578125 20.34375 C-37.238125 20.34375 -37.898125 20.34375 -38.578125 20.34375 C-40.4536433 17.22260445 -40.79758997 15.45895699 -40.015625 11.90625 C-38.83770618 7.44332776 -37.3906378 5.12370725 -33.578125 2.34375 C-22.32382033 -2.95979613 -11.86151285 -4.79945606 0 0 Z M-21.140625 35.90625 C-23.93017104 38.69579604 -24.51738206 39.39211056 -24.765625 43.28125 C-24.8250608 46.51806454 -24.8250608 46.51806454 -22.578125 49.34375 C-16.76023657 50.15825438 -12.36067246 48.53989147 -7.578125 45.34375 C-6.13604559 42.45959117 -6.48417613 39.92653472 -6.515625 36.71875 C-6.52464844 35.53023437 -6.53367187 34.34171875 -6.54296875 33.1171875 C-6.55457031 32.20195313 -6.56617188 31.28671875 -6.578125 30.34375 C-11.58771714 30.34375 -17.33968474 32.77279193 -21.140625 35.90625 Z " fill="#DDE0DD" transform="translate(713.578125,90.65625)"/>
<path d="M0 0 C4.86467951 5.47276445 5.43798169 11.91808822 5.29296875 18.90625 C5.28872391 19.69398804 5.28447906 20.48172607 5.28010559 21.29333496 C5.26347617 23.7792559 5.22585614 26.26432919 5.1875 28.75 C5.17243271 30.44790486 5.15874791 32.14582258 5.14648438 33.84375 C5.11362466 37.97948719 5.06195474 42.1146005 5 46.25 C6.98 45.59 8.96 44.93 11 44.25 C11 43.59 11 42.93 11 42.25 C12.8125 42.375 12.8125 42.375 15 43.25 C16.75 46.3125 16.75 46.3125 18 49.25 C17.0919838 50.38199353 16.17316174 51.50532363 15.25 52.625 C14.73953125 53.25148437 14.2290625 53.87796875 13.703125 54.5234375 C10.34449072 57.92829152 7.33162144 58.55908093 2.625 58.625 C-2.38003251 58.54491948 -5.11326346 57.55372606 -9 54.25 C-9.99 53.59 -10.98 52.93 -12 52.25 C-12.63164062 52.683125 -13.26328125 53.11625 -13.9140625 53.5625 C-21.47714216 58.27035362 -28.13758386 59.66142183 -37 58.25 C-41.51250171 55.99693145 -43.81490653 53.8629751 -46 49.25 C-46.87956396 43.45953728 -46.9134793 38.01725794 -44 32.8125 C-37.77246111 24.357081 -26.82083184 21.34296416 -17 19.25 C-15.33361985 19.21909709 -13.66624673 19.21258859 -12 19.25 C-12.14133499 17.47880197 -12.28823208 15.70804713 -12.4375 13.9375 C-12.51871094 12.95136719 -12.59992188 11.96523437 -12.68359375 10.94921875 C-12.91812559 8.15624401 -12.91812559 8.15624401 -14 5.25 C-17.63 5.25 -21.26 5.25 -25 5.25 C-26.04671691 9.04431729 -26.04671691 9.04431729 -26.3125 12.1875 C-27.17041301 16.00911248 -28.00006658 17.70005659 -31 20.25 C-34.14621301 20.9671515 -36.85167942 20.94898494 -40 20.25 C-42.80775956 18.12705985 -43.68572746 16.60497832 -44.4765625 13.1953125 C-44.90600656 8.59867049 -44.05368866 5.61177169 -41.25 1.9375 C-29.97566892 -9.45048361 -12.7289975 -7.42524854 0 0 Z M-27 34.25 C-29.10373183 37.2143494 -29.36857763 39.65636809 -29 43.25 C-28.01 44.735 -28.01 44.735 -27 46.25 C-22.45860058 46.86578297 -19.08551873 46.73423195 -15 44.5625 C-12.32660014 42.48925113 -12.02522859 41.43773706 -11.56640625 38.0234375 C-11.562826 34.73676345 -11.69820307 31.52186193 -12 28.25 C-17.90111683 28.25 -22.39630914 30.69260252 -27 34.25 Z " fill="#DDE0DD" transform="translate(177,93.75)"/>
<path d="M0 0 C0.99 0.66 1.98 1.32 3 2 C4.65549531 2.38499891 6.3222433 2.72793135 8 3 C8.33 2.01 8.66 1.02 9 0 C11.31 0 13.62 0 16 0 C16.83154277 2.90544511 17.12838334 5.49324882 17.1328125 8.51171875 C17.13474609 9.77145508 17.13474609 9.77145508 17.13671875 11.05664062 C17.13285156 11.92482422 17.12898437 12.79300781 17.125 13.6875 C17.13080078 15.00717773 17.13080078 15.00717773 17.13671875 16.35351562 C17.13542969 17.18947266 17.13414062 18.02542969 17.1328125 18.88671875 C17.13168457 19.65201904 17.13055664 20.41731934 17.12939453 21.20581055 C17 23 17 23 16 24 C12.5625 24.1875 12.5625 24.1875 9 24 C6.89232408 21.89232408 6.50064875 20.82851987 5.625 18.0625 C4.38504202 14.60564744 3.34966524 12.77950966 0 11 C-4.80472158 9.39842614 -9.86650841 9.06334516 -14.5625 11.125 C-16.58743318 13.76621719 -16.28748553 15.76578783 -16 19 C-12.12904406 20.64023557 -8.23981127 21.82501322 -4.1875 22.9375 C12.79119191 27.75049739 12.79119191 27.75049739 18.3125 35.0625 C21.08522266 40.32501443 21.03384314 46.40551228 19.41015625 52.05078125 C16.87610588 57.31740207 12.05448372 60.34817579 7 63 C2.54820048 64.34177389 -1.82575966 64.18400361 -6.4375 64.1875 C-7.28376953 64.19974609 -8.13003906 64.21199219 -9.00195312 64.22460938 C-13.51767761 64.23521797 -16.85148269 63.9618222 -21 62 C-21.99 62 -22.98 62 -24 62 C-24.33 62.66 -24.66 63.32 -25 64 C-30.44927536 65.27536232 -30.44927536 65.27536232 -33 64 C-34.27435939 56.91888978 -36.28586695 44.57173389 -33 38 C-30.36 38 -27.72 38 -25 38 C-24.63648438 38.81984375 -24.27296875 39.6396875 -23.8984375 40.484375 C-20.13754762 48.83585602 -20.13754762 48.83585602 -13 54 C-8.19805182 55.60064939 -4.37626514 55.50972783 0.375 53.75 C3.05360508 52.25674871 3.05360508 52.25674871 4.0625 50.0625 C3.97482783 47.16931824 2.93200584 46.1223384 1 44 C-1.32905314 42.86264958 -1.32905314 42.86264958 -4.0078125 42.140625 C-4.99523437 41.82867187 -5.98265625 41.51671875 -7 41.1953125 C-9.05754526 40.57290506 -11.11741235 39.95811401 -13.1796875 39.3515625 C-20.45523407 37.03318885 -26.04100949 33.93082511 -31 28 C-33.26485971 23.27073346 -34.0422371 19.00840331 -32.27734375 13.9140625 C-30.25391914 9.50676517 -28.19100107 6.607734 -24 4 C-23.40832031 3.62875 -22.81664062 3.2575 -22.20703125 2.875 C-15.25863826 -0.87947876 -7.70558602 -0.79458081 0 0 Z " fill="#DCE0DD" transform="translate(774,88)"/>
<path d="M0 0 C1.2375 0.433125 1.2375 0.433125 2.5 0.875 C3.65625 3.4296875 3.65625 3.4296875 4.5 5.875 C5.2734375 5.441875 6.046875 5.00875 6.84375 4.5625 C18.06070941 -1.43468622 18.06070941 -1.43468622 24.5 -0.125 C27.80874972 1.99929457 30.72387279 4.32274558 32.5 7.875 C32.54107268 12.13012922 32.21525498 15.77460772 29.875 19.375 C26.65914004 21.40606945 24.29425893 21.80843405 20.5 21.875 C17.48547583 20.60220091 15.98053762 19.6072478 14.1875 16.875 C13.5 14.875 13.5 14.875 13.5 11.875 C11.55000871 12.06971111 11.55000871 12.06971111 9.5 12.875 C8.31669817 14.74144906 8.31669817 14.74144906 7.5 16.875 C6.84 17.865 6.18 18.855 5.5 19.875 C5.26006345 22.41086848 5.12746781 24.84716031 5.0859375 27.38671875 C5.06657135 28.11494339 5.0472052 28.84316803 5.0272522 29.59346008 C4.96753624 31.91635475 4.92110383 34.23929919 4.875 36.5625 C4.83681279 38.13869332 4.79776062 39.71486595 4.7578125 41.29101562 C4.66184152 45.15217535 4.57778151 49.01343276 4.5 52.875 C5.54800781 52.93107422 5.54800781 52.93107422 6.6171875 52.98828125 C7.98230469 53.08689453 7.98230469 53.08689453 9.375 53.1875 C10.27992188 53.24550781 11.18484375 53.30351562 12.1171875 53.36328125 C14.5 53.875 14.5 53.875 16.5 56.875 C16.125 59.5625 16.125 59.5625 15.5 61.875 C10.57099318 62.0920816 5.64175089 62.28893235 0.71118164 62.46704102 C-0.96612148 62.53048549 -2.6432248 62.59946244 -4.32006836 62.67407227 C-6.72999489 62.78034011 -9.13993877 62.86671366 -11.55078125 62.94921875 C-12.67592888 63.0052552 -12.67592888 63.0052552 -13.82380676 63.06242371 C-18.99945559 63.21202141 -18.99945559 63.21202141 -21.49682617 61.53051758 C-22.5 59.875 -22.5 59.875 -22.5 57.3125 C-21.5 54.875 -21.5 54.875 -19.1875 53.5625 C-16.5 52.875 -16.5 52.875 -12.5 52.875 C-12.83 40.005 -13.16 27.135 -13.5 13.875 C-17.955 12.885 -17.955 12.885 -22.5 11.875 C-23.5 7.875 -23.5 7.875 -22.5 4.875 C-20.76586914 4.18310547 -20.76586914 4.18310547 -18.53515625 3.7421875 C-17.73529297 3.57589844 -16.93542969 3.40960938 -16.11132812 3.23828125 C-15.27021484 3.07714844 -14.42910156 2.91601562 -13.5625 2.75 C-11.90713506 2.41612347 -10.25216584 2.08027715 -8.59765625 1.7421875 C-7.86039307 1.59894043 -7.12312988 1.45569336 -6.36352539 1.30810547 C-0.60497994 -0.030249 -0.60497994 -0.030249 0 0 Z " fill="#DEE0DE" transform="translate(633.5,88.125)"/>
<path d="M0 0 C2.38869051 3.58303576 2.30606966 6.17724734 2.31884766 10.31713867 C2.32889328 11.05884811 2.3389389 11.80055756 2.34928894 12.56474304 C2.38017424 15.01581041 2.39717073 17.46676829 2.4140625 19.91796875 C2.43276987 21.61762945 2.45234296 23.31728083 2.4727478 25.016922 C2.52412064 29.49012762 2.56371872 33.96336338 2.60089111 38.43670654 C2.64089851 43.00150029 2.69200572 47.56616815 2.7421875 52.13085938 C2.83900775 61.08715122 2.92339298 70.04351406 3 79 C5.64 79.99 8.28 80.98 11 82 C11.042721 83.66611905 11.04063832 85.33382885 11 87 C10 88 10 88 6.76538086 88.11352539 C5.33185874 88.11336631 3.89833088 88.10767407 2.46484375 88.09765625 C1.33496788 88.09553383 1.33496788 88.09553383 0.18226624 88.09336853 C-2.2326956 88.08775376 -4.64756601 88.07519883 -7.0625 88.0625 C-8.69596221 88.0574869 -10.32942586 88.05292366 -11.96289062 88.04882812 C-15.97529585 88.03777954 -19.98763241 88.02050506 -24 88 C-24 85.69 -24 83.38 -24 81 C-23.05125 80.690625 -22.1025 80.38125 -21.125 80.0625 C-18.13919592 79.12605258 -18.13919592 79.12605258 -16 78 C-16 56.55 -16 35.1 -16 13 C-18.64 13 -21.28 13 -24 13 C-24.66 12.67 -25.32 12.34 -26 12 C-25.67 9.69 -25.34 7.38 -25 5 C-23.79601562 4.72285156 -22.59203125 4.44570312 -21.3515625 4.16015625 C-19.77601093 3.79440321 -18.20049177 3.42851055 -16.625 3.0625 C-15.8309375 2.88009766 -15.036875 2.69769531 -14.21875 2.50976562 C-13.45820312 2.33251953 -12.69765625 2.15527344 -11.9140625 1.97265625 C-10.8614624 1.72914429 -10.8614624 1.72914429 -9.78759766 1.48071289 C-3.26849758 -0.2723748 -3.26849758 -0.2723748 0 0 Z " fill="#DBDDDB" transform="translate(866,62)"/>
<path d="M0 0 C2.15668836 3.23503254 2.26229044 4.18821736 2.31884766 7.93041992 C2.33871735 8.93123093 2.35858704 9.93204193 2.37905884 10.96318054 C2.39061005 12.04138565 2.40216125 13.11959076 2.4140625 14.23046875 C2.43342865 15.33602615 2.4527948 16.44158356 2.4727478 17.5806427 C2.53258836 21.11618301 2.5789473 24.65175579 2.625 28.1875 C2.66317562 30.58269659 2.7022271 32.9778794 2.7421875 35.37304688 C2.83829358 41.24857564 2.92332804 47.12418725 3 53 C5.64 53.99 8.28 54.98 11 56 C11.042721 57.66611905 11.04063832 59.33382885 11 61 C9.44682433 62.55317567 7.8911191 62.2171738 5.73046875 62.31640625 C4.84657471 62.35846191 3.96268066 62.40051758 3.05200195 62.44384766 C2.10671631 62.48300293 1.16143066 62.5221582 0.1875 62.5625 C-0.76487549 62.6042334 -1.71725098 62.6459668 -2.69848633 62.68896484 C-22.01294277 63.49352862 -22.01294277 63.49352862 -25 62 C-25 60.02 -25 58.04 -25 56 C-18.25 53 -18.25 53 -16 53 C-16 40.13 -16 27.26 -16 14 C-19.3 13.34 -22.6 12.68 -26 12 C-26 10.02 -26 8.04 -26 6 C-22.34911683 3.83755382 -18.49267584 3.18294132 -14.375 2.4375 C-0.76222555 -0.07622255 -0.76222555 -0.07622255 0 0 Z " fill="#DCDFDC" transform="translate(414,88)"/>
<path d="M0 0 C0.98466253 2.95398758 1.12127836 4.85249022 1.11352539 7.93041992 C1.11344986 8.93123093 1.11337433 9.93204193 1.11329651 10.96318054 C1.10813522 12.04138565 1.10297394 13.11959076 1.09765625 14.23046875 C1.0962413 15.33602615 1.09482635 16.44158356 1.09336853 17.5806427 C1.08776514 21.11628917 1.07521204 24.65187262 1.0625 28.1875 C1.05748544 30.58268138 1.05292246 32.97786375 1.04882812 35.37304688 C1.03779461 41.24871947 1.02105316 47.12435523 1 53 C3.64 53.33 6.28 53.66 9 54 C9 56.31 9 58.62 9 61 C-2.6235827 62.53157796 -14.3764173 62.53157796 -26 61 C-26.125 58.125 -26.125 58.125 -26 55 C-24 53 -24 53 -17 52 C-17 38.8 -17 25.6 -17 12 C-19.64 12 -22.28 12 -25 12 C-27 9 -27 9 -26.625 6.3125 C-26.41875 5.549375 -26.2125 4.78625 -26 4 C-24.7315625 3.70996094 -24.7315625 3.70996094 -23.4375 3.4140625 C-22.303125 3.15367188 -21.16875 2.89328125 -20 2.625 C-18.22109375 2.21894531 -18.22109375 2.21894531 -16.40625 1.8046875 C-13.7473338 1.17654904 -11.12899854 0.4881419 -8.5 -0.25 C-5.14647707 -0.96861206 -3.23592481 -1.0112265 0 0 Z " fill="#DCDFDD" transform="translate(828,89)"/>
<path d="M0 0 C3.4855894 2.63355644 4.7949595 4.28235825 6 8.5 C6 12.48112565 5.5290797 13.96510436 3 17 C0.34491572 19.08101201 -1.56685649 19.91525453 -4.875 20.5625 C-9.43438406 19.74181087 -12.29781584 17.77227989 -15 14 C-15.94249304 10.78310759 -15.9589126 8.21413297 -15 5 C-11.03915191 -0.20322591 -6.17899106 -1.7301175 0 0 Z " fill="#DCE0DC" transform="translate(824,61)"/>
<path d="M0 0 C2.9375 2.4375 2.9375 2.4375 5 5 C5.33 5.33 5.66 5.66 6 6 C6.39059434 10.06218109 6.43336164 12.30352594 4.25 15.8125 C1.18388248 18.79344759 -0.65394196 19.79516508 -4.875 20.4375 C-9.2682371 19.82244681 -10.84565969 18.08098355 -14 15 C-15.56935594 11.86128812 -15.35201103 9.46144178 -15 6 C-10.6751759 0.76468662 -6.83699481 -1.21808528 0 0 Z " fill="#DCE1DC" transform="translate(411,61)"/>
<path d="M0 0 C0.99 0 1.98 0 3 0 C2.9278125 1.00417969 2.855625 2.00835937 2.78125 3.04296875 C1.92316092 15.46083088 1.67451375 27.59723581 3 40 C3 41.33333333 3 42.66666667 3 44 C1.1875 44.6875 1.1875 44.6875 -1 45 C-2.75 43.5625 -2.75 43.5625 -4 42 C-4 42.99 -4 43.98 -4 45 C-3.34 45.66 -2.68 46.32 -2 47 C-4.64 47 -7.28 47 -10 47 C-10 45.35 -10 43.7 -10 42 C-3.375 38 -3.375 38 0 38 C0 25.46 0 12.92 0 0 Z " fill="#D7DDD7" transform="translate(339,103)"/>
<path d="M0 0 C0.66 0 1.32 0 2 0 C2 21.12 2 42.24 2 64 C1.34 64 0.68 64 0 64 C-0.15360204 55.80318891 -0.30178366 47.60630575 -0.4429636 39.40927219 C-0.50868469 35.60344118 -0.57630279 31.79766323 -0.64819336 27.99194336 C-0.7174476 24.32214465 -0.781801 20.65229029 -0.84269524 16.98234367 C-0.86685021 15.57922153 -0.89279867 14.17612913 -0.92053413 12.7730732 C-0.9589529 10.81437796 -0.99051691 8.85555185 -1.02172852 6.89672852 C-1.04171402 5.77976089 -1.06169952 4.66279327 -1.08229065 3.51197815 C-1 1 -1 1 0 0 Z " fill="#D5D9D2" transform="translate(66,78)"/>
<path d="M0 0 C1.89551022 -0.05441656 3.7914792 -0.09298035 5.6875 -0.125 C6.74324219 -0.14820312 7.79898437 -0.17140625 8.88671875 -0.1953125 C12.02251859 0.00141271 14.17645373 0.66942346 17 2 C16.67 2.99 16.34 3.98 16 5 C15.34 5 14.68 5 14 5 C14 5.66 14 6.32 14 7 C13.38125 6.814375 12.7625 6.62875 12.125 6.4375 C9.95839822 5.76313824 9.95839822 5.76313824 8 7 C7.67 7.99 7.34 8.98 7 10 C4.69 10 2.38 10 0 10 C-0.33 7.69 -0.66 5.38 -1 3 C-0.01 2.67 0.98 2.34 2 2 C1.34 1.34 0.68 0.68 0 0 Z " fill="#DFE2DF" transform="translate(451,88)"/>
<path d="M0 0 C6.8218683 -0.38614349 12.49577707 0.99134292 19 3 C19 3.99 19 4.98 19 6 C17.865625 6.12375 16.73125 6.2475 15.5625 6.375 C13.7990625 6.684375 13.7990625 6.684375 12 7 C11.67 7.66 11.34 8.32 11 9 C10.34 8.67 9.68 8.34 9 8 C8.67 8.66 8.34 9.32 8 10 C5.68152126 10.7166207 3.34680297 11.38242027 1 12 C0.01 12.495 0.01 12.495 -1 13 C-1.33 11.68 -1.66 10.36 -2 9 C0.31 8.34 2.62 7.68 5 7 C4.34 6.67 3.68 6.34 3 6 C3 5.34 3 4.68 3 4 C2.34 3.67 1.68 3.34 1 3 C1.99 3 2.98 3 4 3 C4 2.34 4 1.68 4 1 C2.68 0.67 1.36 0.34 0 0 Z " fill="#DEE5E0" transform="translate(219,88)"/>
<path d="M0 0 C2.875 -0.1875 2.875 -0.1875 6 0 C8.03120707 3.04681061 8.24659875 3.60118324 8.1953125 7.01171875 C8.18564453 8.14770508 8.18564453 8.14770508 8.17578125 9.30664062 C8.15902344 10.09232422 8.14226563 10.87800781 8.125 11.6875 C8.11597656 12.48478516 8.10695313 13.28207031 8.09765625 14.10351562 C8.07411585 16.069139 8.03824547 18.03460775 8 20 C7.34 20 6.68 20 6 20 C4.7937748 16.38132441 4.89183082 13.07493749 4.9375 9.3125 C4.94201172 8.61060547 4.94652344 7.90871094 4.95117188 7.18554688 C4.96293073 5.45699462 4.98086546 3.72848635 5 2 C3.02 2.33 1.04 2.66 -1 3 C-0.67 2.01 -0.34 1.02 0 0 Z " fill="#D3D6D0" transform="translate(860,62)"/>
<path d="M0 0 C0.99 0 1.98 0 3 0 C2.9278125 0.94617188 2.855625 1.89234375 2.78125 2.8671875 C2.03612182 13.25913553 1.89150112 23.58410724 2 34 C1.01 34.495 1.01 34.495 0 35 C0 23.45 0 11.9 0 0 Z " fill="#CDE2CD" transform="translate(339,103)"/>
<path d="M0 0 C0.33 0.99 0.66 1.98 1 3 C-0.32 3 -1.64 3 -3 3 C-3.66 4.32 -4.32 5.64 -5 7 C-5.99 7 -6.98 7 -8 7 C-9.33981486 7.3062434 -10.67511887 7.63451555 -12 8 C-12.66 7.01 -13.32 6.02 -14 5 C-13 3 -13 3 -10.56640625 2.1484375 C-9.57511719 1.89320312 -8.58382812 1.63796875 -7.5625 1.375 C-6.07943359 0.98441406 -6.07943359 0.98441406 -4.56640625 0.5859375 C-2 0 -2 0 0 0 Z " fill="#D4DFD4" transform="translate(825,88)"/>
<path d="M0 0 C0.99 0.33 1.98 0.66 3 1 C3.33 2.98 3.66 4.96 4 7 C11.04207705 6.2812193 11.04207705 6.2812193 18 5 C17 6.9375 17 6.9375 15 9 C10.13605739 10.27578823 8.16081061 10.52764119 3.5625 8.4375 C0.57276453 5.59360529 0.18425479 4.05360528 0 0 Z " fill="#D1E7D3" transform="translate(365,100)"/>
<path d="M0 0 C1.65 0.33 3.3 0.66 5 1 C5.6875 3.3125 5.6875 3.3125 6 6 C4.02605822 8.96091267 1.27566484 9.84909073 -2 11 C-2.33 10.34 -2.66 9.68 -3 9 C-2.34 9 -1.68 9 -1 9 C-0.67 6.03 -0.34 3.06 0 0 Z " fill="#E2E4E3" transform="translate(674,131)"/>
<path d="M0 0 C0 0.66 0 1.32 0 2 C0.61875 1.649375 1.2375 1.29875 1.875 0.9375 C2.926875 0.4734375 2.926875 0.4734375 4 0 C4.66 0.33 5.32 0.66 6 1 C4.81832637 3.36334727 4.17476401 4.45661909 2 6 C-0.71829857 6.26323445 -3.25799271 6.13485282 -6 6 C-5.625 3.5625 -5.625 3.5625 -5 1 C-3 0 -3 0 0 0 Z " fill="#E5E8E7" transform="translate(244,145)"/>
<path d="M0 0 C0.33 0.66 0.66 1.32 1 2 C-0.0725 1.938125 -1.145 1.87625 -2.25 1.8125 C-6.10866187 2.00543309 -7.28817788 2.39665076 -10 5 C-9.67 6.65 -9.34 8.3 -9 10 C-10.32 9.34 -11.64 8.68 -13 8 C-13.3125 5.6875 -13.3125 5.6875 -13 3 C-8.94302434 -0.24558053 -4.97630801 -1.65876934 0 0 Z " fill="#D3DFD6" transform="translate(239,65)"/>
<path d="M0 0 C3.96 0 7.92 0 12 0 C12 0.33 12 0.66 12 1 C9.69 1.33 7.38 1.66 5 2 C4.67 3.32 4.34 4.64 4 6 C3.34 6 2.68 6 2 6 C2 6.66 2 7.32 2 8 C3.32 8.33 4.64 8.66 6 9 C6 9.33 6 9.66 6 10 C4.02 10 2.04 10 0 10 C-0.33 7.69 -0.66 5.38 -1 3 C-0.01 2.67 0.98 2.34 2 2 C1.34 1.34 0.68 0.68 0 0 Z " fill="#E7EDE9" transform="translate(451,88)"/>
<path d="M0 0 C0.33 0 0.66 0 1 0 C2.57534247 9.77739726 2.57534247 9.77739726 0.5 14.1875 C-2.80135323 16.58098109 -5.01567504 16.38310817 -9 16 C-9.33 16.66 -9.66 17.32 -10 18 C-9.8125 16.125 -9.8125 16.125 -9 14 C-5.70173093 12.21715186 -3.8225249 12 0 12 C0 8.04 0 4.08 0 0 Z " fill="#D3E0D5" transform="translate(621,129)"/>
<path d="M0 0 C0.33 0.66 0.66 1.32 1 2 C0.484375 2.4125 -0.03125 2.825 -0.5625 3.25 C-1.036875 3.8275 -1.51125 4.405 -2 5 C-1.77242269 7.16299211 -1.77242269 7.16299211 -1 9 C-2.98 9 -4.96 9 -7 9 C-7.125 6.125 -7.125 6.125 -7 3 C-4.64046906 0.64046906 -3.22104383 0.50858587 0 0 Z " fill="#E0E9DF" transform="translate(809,141)"/>
<path d="M0 0 C2.4375 0.8125 2.4375 0.8125 5 2 C5.33 2.99 5.66 3.98 6 5 C-0.4 6.23076923 -0.4 6.23076923 -3.4375 5.0625 C-3.953125 4.711875 -4.46875 4.36125 -5 4 C-5 3.34 -5 2.68 -5 2 C-3.68 2 -2.36 2 -1 2 C-0.67 1.34 -0.34 0.68 0 0 Z " fill="#E4E5E2" transform="translate(404,145)"/>
<path d="M0 0 C2.31 0 4.62 0 7 0 C7.33 0.99 7.66 1.98 8 3 C3.56923077 6.07692308 3.56923077 6.07692308 0.6875 5.6875 C0.130625 5.460625 -0.42625 5.23375 -1 5 C-0.67 3.35 -0.34 1.7 0 0 Z " fill="#E2E7E3" transform="translate(783,88)"/>
<path d="M0 0 C3.1129903 1.63061397 4.60708576 3.53497255 6.625 6.375 C6.295 7.035 5.965 7.695 5.625 8.375 C5.08230469 8.0140625 4.53960938 7.653125 3.98046875 7.28125 C3.26503906 6.8171875 2.54960938 6.353125 1.8125 5.875 C1.10480469 5.4109375 0.39710938 4.946875 -0.33203125 4.46875 C-2.42958124 3.13900625 -2.42958124 3.13900625 -5.375 3.375 C-5.045 2.385 -4.715 1.395 -4.375 0.375 C-2.375 -0.625 -2.375 -0.625 0 0 Z " fill="#D5DDD7" transform="translate(592.375,73.625)"/>
<path d="M0 0 C-1.3125 1.9375 -1.3125 1.9375 -4 4 C-7.65582511 4.6575225 -11.29108788 4.87210648 -15 5 C-14.67 4.01 -14.34 3.02 -14 2 C-9.619084 0.30737336 -4.67375574 -0.30153263 0 0 Z " fill="#D2D9D2" transform="translate(858,64)"/>
<path d="M0 0 C2.5625 1.9375 2.5625 1.9375 5 5 C5.24379232 8.12160168 4.9332995 11.00849696 4 14 C3.01 14.495 3.01 14.495 2 15 C1.07053383 12.2116015 0.94023455 10.78150067 1.0625 7.9375 C1.45661561 3.99275213 1.45661561 3.99275213 -1 2 C-0.67 1.34 -0.34 0.68 0 0 Z " fill="#D6E5D8" transform="translate(661,91)"/>
<path d="M0 0 C0.33 0 0.66 0 1 0 C1.35480978 4.98704856 1.58540154 8.82919691 -0.6875 13.375 C-2.94949152 15.94266605 -5.22909888 17.99879363 -8 20 C-8 19.01 -8 18.02 -8 17 C-7.34 17 -6.68 17 -6 17 C-5.9175 16.2575 -5.835 15.515 -5.75 14.75 C-5 12 -5 12 -3 10.1875 C-0.06208984 6.97416076 -0.28584449 4.2876673 0 0 Z " fill="#D8E4DB" transform="translate(600,85)"/>
<path d="M0 0 C2 1.5 2 1.5 3 3 C-0.49547347 4.16515782 -2.51562202 3.74739633 -6.0625 3.15625 C-8.21800052 2.85518707 -8.21800052 2.85518707 -11 4 C-11.66 3.34 -12.32 2.68 -13 2 C-8.47806839 -0.2609658 -4.96161052 -0.40012988 0 0 Z " fill="#D3DFD5" transform="translate(658,88)"/>
<path d="M0 0 C2.31 0 4.62 0 7 0 C6.34 1.98 5.68 3.96 5 6 C5.66 6 6.32 6 7 6 C7 6.99 7 7.98 7 9 C5.35 8.67 3.7 8.34 2 8 C2.33 7.01 2.66 6.02 3 5 C1.62750037 2.32323453 1.62750037 2.32323453 0 0 Z " fill="#E5E7E4" transform="translate(295,113)"/>
<path d="M0 0 C4.62 0 9.24 0 14 0 C14.33 0.99 14.66 1.98 15 3 C9.72 2.67 4.44 2.34 -1 2 C-0.67 1.34 -0.34 0.68 0 0 Z " fill="#E5E4E8" transform="translate(561,75)"/>
<path d="M0 0 C1.32 0 2.64 0 4 0 C3.79375 0.61875 3.5875 1.2375 3.375 1.875 C3.25125 2.57625 3.1275 3.2775 3 4 C3.66 4.66 4.32 5.32 5 6 C5 6.66 5 7.32 5 8 C2.03 7.505 2.03 7.505 -1 7 C-1.04254356 5.00045254 -1.04080783 2.99958364 -1 1 C-0.67 0.67 -0.34 0.34 0 0 Z " fill="#E6EEE5" transform="translate(532,70)"/>
<path d="M0 0 C-1.485 1.485 -1.485 1.485 -3 3 C-2.2236068 6.0745356 -2.2236068 6.0745356 0 8 C-2.375 8.125 -2.375 8.125 -5 8 C-5.66 7.34 -6.32 6.68 -7 6 C-6.625 2.875 -6.625 2.875 -6 0 C-3 -1 -3 -1 0 0 Z " fill="#D2E4D1" transform="translate(335,93)"/>
<path d="M0 0 C2.375 0.1875 2.375 0.1875 5 1 C6.3125 3.5625 6.3125 3.5625 7 6 C4.69 5.67 2.38 5.34 0 5 C0 3.35 0 1.7 0 0 Z " fill="#D1E1D5" transform="translate(729,136)"/>
<path d="M0 0 C0.33 0 0.66 0 1 0 C1 2.64 1 5.28 1 8 C1.66 8.33 2.32 8.66 3 9 C1.625 10.5 1.625 10.5 0 12 C-0.66 12 -1.32 12 -2 12 C-2.33 12.99 -2.66 13.98 -3 15 C-4.65 15 -6.3 15 -8 15 C-6.33441734 13.33441734 -4.72430567 11.78106627 -2.875 10.3125 C-0.16357572 6.96841006 -0.28369583 4.25543742 0 0 Z " fill="#D3E0D3" transform="translate(582,88)"/>
<path d="M0 0 C1.98 0 3.96 0 6 0 C5.34 1.98 4.68 3.96 4 6 C2.824375 5.9690625 2.824375 5.9690625 1.625 5.9375 C-0.98114961 5.81315937 -0.98114961 5.81315937 -3 7 C-2 4 -2 4 1 2 C0.67 1.34 0.34 0.68 0 0 Z " fill="#E4E4E3" transform="translate(458,113)"/>
<path d="M0 0 C3.81287042 1.44626119 5.32707177 3.30194812 7 7 C6.6875 9.3125 6.6875 9.3125 6 11 C6 10.34 6 9.68 6 9 C4.35 8.67 2.7 8.34 1 8 C1.33 6.68 1.66 5.36 2 4 C1.34 3.67 0.68 3.34 0 3 C0 2.01 0 1.02 0 0 Z " fill="#D2E3CE" transform="translate(823,61)"/>
<path d="M0 0 C0.6875 1.8125 0.6875 1.8125 1 4 C-0.4375 5.75 -0.4375 5.75 -2 7 C-2.66 6.34 -3.32 5.68 -4 5 C-4.66 5.66 -5.32 6.32 -6 7 C-6 5.35 -6 3.7 -6 2 C-2.25 0 -2.25 0 0 0 Z " fill="#E2E7E3" transform="translate(749,126)"/>
<path d="M0 0 C1.98 0 3.96 0 6 0 C5.34 0.66 4.68 1.32 4 2 C4.99 2 5.98 2 7 2 C6.67 2.99 6.34 3.98 6 5 C4.02 5.33 2.04 5.66 0 6 C0 4.02 0 2.04 0 0 Z " fill="#E0E6E2" transform="translate(391,145)"/>
<path d="M0 0 C3.04470873 1.52235436 4.20270948 4.18424486 6 7 C5.34 7.66 4.68 8.32 4 9 C1.4375 6.75 1.4375 6.75 -1 4 C-0.8125 1.6875 -0.8125 1.6875 0 0 Z " fill="#E3E8E4" transform="translate(202,139)"/>
<path d="M0 0 C-0.33 1.65 -0.66 3.3 -1 5 C-5.875 2.25 -5.875 2.25 -7 0 C-4.3333581 -1.33332095 -2.83319697 -0.67102033 0 0 Z " fill="#E3E7E1" transform="translate(174,146)"/>
<path d="M0 0 C0.33 0 0.66 0 1 0 C1 6.27 1 12.54 1 19 C0.01 19.33 -0.98 19.66 -2 20 C-2 18.68 -2 17.36 -2 16 C-1.34 16 -0.68 16 0 16 C0 10.72 0 5.44 0 0 Z " fill="#D0D0CF" transform="translate(867,120)"/>
<path d="M0 0 C1.65 0 3.3 0 5 0 C5 1.65 5 3.3 5 5 C4.01 5.33 3.02 5.66 2 6 C1.01 5.34 0.02 4.68 -1 4 C-0.67 2.68 -0.34 1.36 0 0 Z " fill="#E4E6E4" transform="translate(786,106)"/>
<path d="M0 0 C2.34545328 2.34545328 2.95508888 3.95985838 3.09765625 7.26171875 C3.08605469 8.06222656 3.07445312 8.86273438 3.0625 9.6875 C3.05347656 10.49574219 3.04445313 11.30398437 3.03515625 12.13671875 C3.02355469 12.75160156 3.01195312 13.36648437 3 14 C2.34 14 1.68 14 1 14 C0.67 9.38 0.34 4.76 0 0 Z " fill="#D5E5D5" transform="translate(720,97)"/>
<path d="M0 0 C0.33 0 0.66 0 1 0 C1.103125 1.2375 1.20625 2.475 1.3125 3.75 C1.73801682 7.2792866 2.48112592 9.37160966 5 12 C4.67 12.66 4.34 13.32 4 14 C3.01 13.34 2.02 12.68 1 12 C0.34 12.66 -0.32 13.32 -1 14 C-0.67 9.38 -0.34 4.76 0 0 Z " fill="#CCD7CC" transform="translate(106,89)"/>
<path d="M0 0 C0.99 0.33 1.98 0.66 3 1 C2.113125 1.556875 1.22625 2.11375 0.3125 2.6875 C-2.84588589 4.77815733 -5.35849482 7.28511968 -8 10 C-8.99 10.495 -8.99 10.495 -10 11 C-8.56285993 7.64170896 -6.79022601 5.60029302 -4.0625 3.1875 C-3.02802734 2.24970703 -3.02802734 2.24970703 -1.97265625 1.29296875 C-1.32167969 0.86628906 -0.67070312 0.43960938 0 0 Z " fill="#D2DFD2" transform="translate(209,92)"/>
<path d="M0 0 C2.64 0 5.28 0 8 0 C8 0.99 8 1.98 8 3 C8.66 3.66 9.32 4.32 10 5 C7.69 5.33 5.38 5.66 3 6 C3 5.34 3 4.68 3 4 C2.34 3.67 1.68 3.34 1 3 C1.99 3 2.98 3 4 3 C4 2.34 4 1.68 4 1 C2.68 0.67 1.36 0.34 0 0 Z " fill="#EDECED" transform="translate(219,88)"/>
<path d="M0 0 C0.99 0.33 1.98 0.66 3 1 C1.60667426 4.36720387 0.0210714 5.9859524 -3 8 C-3.66 7.67 -4.32 7.34 -5 7 C-3.35 4.69 -1.7 2.38 0 0 Z " fill="#D8EBDD" transform="translate(732,143)"/>
<path d="M0 0 C0.99 0.66 1.98 1.32 3 2 C2.34 2 1.68 2 1 2 C0.67 5.3 0.34 8.6 0 12 C-0.66 12 -1.32 12 -2 12 C-2.17835515 7.45194365 -1.99785435 4.1205746 0 0 Z " fill="#D3ECD9" transform="translate(673,128)"/>
<path d="M0 0 C0.99 0.33 1.98 0.66 3 1 C2.11223998 4.69900008 1.05418136 8.34550461 0 12 C-0.33 12 -0.66 12 -1 12 C-1.02698189 10.37509046 -1.04638757 8.75005367 -1.0625 7.125 C-1.07410156 6.22007812 -1.08570313 5.31515625 -1.09765625 4.3828125 C-1 2 -1 2 0 0 Z " fill="#D4DCD3" transform="translate(266,130)"/>
<path d="M0 0 C7.625 0.875 7.625 0.875 11 2 C11 2.99 11 3.98 11 5 C10.05125 4.649375 9.1025 4.29875 8.125 3.9375 C5.12939828 2.64973223 5.12939828 2.64973223 3 4 C3 3.01 3 2.02 3 1 C2.01 0.67 1.02 0.34 0 0 Z " fill="#E8EDE8" transform="translate(158,88)"/>
<path d="M0 0 C3 1 3 1 4 3 C4.13415472 5.6723621 4.04318541 8.32250488 4 11 C3.71125 10.401875 3.4225 9.80375 3.125 9.1875 C1.95257974 6.80672208 1.95257974 6.80672208 0 4 C-0.33 3.34 -0.66 2.68 -1 2 C-0.67 1.34 -0.34 0.68 0 0 Z " fill="#E9ECE9" transform="translate(412,88)"/>
<path d="M0 0 C3.67230705 3.07999946 4.56802365 5.2482602 5 10 C3.0625 8.9375 3.0625 8.9375 1 7 C0.25 3.3125 0.25 3.3125 0 0 Z " fill="#CFDFD0" transform="translate(601,114)"/>
<path d="M0 0 C-0.33 0.66 -0.66 1.32 -1 2 C-3.7696959 2.72886734 -6.12862585 3 -9 3 C-9.33 2.34 -9.66 1.68 -10 1 C-3.375 -1.125 -3.375 -1.125 0 0 Z " fill="#D6DAD5" transform="translate(295,115)"/>
<path d="M0 0 C0.66 0.99 1.32 1.98 2 3 C-1.93670488 4.31223496 -4.12488144 3.24296256 -8 2 C-4.79191085 -0.1387261 -3.72301503 -0.47730962 0 0 Z " fill="#E3EBDE" transform="translate(706,113)"/>
<path d="M0 0 C-0.99 0.66 -1.98 1.32 -3 2 C-3.72382467 4.05925139 -3.72382467 4.05925139 -4 6 C-4.66 6 -5.32 6 -6 6 C-6.33 4.35 -6.66 2.7 -7 1 C-3.375 -1.125 -3.375 -1.125 0 0 Z " fill="#D9E5DB" transform="translate(395,93)"/>
<path d="M0 0 C3.10551666 0 4.35261084 0.5393715 7 2 C4.85279101 4.14720899 3.92209857 4.5434221 1 5 C0.34 4.67 -0.32 4.34 -1 4 C-0.67 2.68 -0.34 1.36 0 0 Z " fill="#E2E5E3" transform="translate(136,145)"/>
<path d="M0 0 C1.5625 1.1875 1.5625 1.1875 3 3 C2.6875 5.6875 2.6875 5.6875 2 8 C1.01 7.67 0.02 7.34 -1 7 C-1.33 6.34 -1.66 5.68 -2 5 C-1.0625 2.375 -1.0625 2.375 0 0 Z " fill="#E1EBE3" transform="translate(647,142)"/>
<path d="M0 0 C1.32 0.33 2.64 0.66 4 1 C3.67 1.99 3.34 2.98 3 4 C1.02 4.33 -0.96 4.66 -3 5 C-2.01 3.35 -1.02 1.7 0 0 Z " fill="#D2E7D2" transform="translate(487,136)"/>
<path d="M0 0 C0.99 0.33 1.98 0.66 3 1 C2.01 1.33 1.02 1.66 0 2 C-0.33 2.99 -0.66 3.98 -1 5 C-1.66 4.67 -2.32 4.34 -3 4 C-3 4.66 -3 5.32 -3 6 C-3.99 5.67 -4.98 5.34 -6 5 C-2.25 1.125 -2.25 1.125 0 0 Z " fill="#D3E1D3" transform="translate(685,118)"/>
<path d="M0 0 C0.66 0 1.32 0 2 0 C1 4 0 8 -1 12 C-2.24834144 9.50331711 -1.95155125 8.18670849 -1.625 5.4375 C-1.53476562 4.63183594 -1.44453125 3.82617188 -1.3515625 2.99609375 C-1 1 -1 1 0 0 Z " fill="#CFDDD0" transform="translate(269,98)"/>
<path d="M0 0 C2 1 2 1 2.875 2.9375 C4.22909764 5.42001234 5.42178493 5.96871397 8 7 C2.25 7.125 2.25 7.125 0 6 C-0.6875 4.0625 -0.6875 4.0625 -1 2 C-0.67 1.34 -0.34 0.68 0 0 Z " fill="#D5E4D5" transform="translate(611,94)"/>
<path d="M0 0 C1.2065625 0.0309375 1.2065625 0.0309375 2.4375 0.0625 C1.4475 0.7225 0.4575 1.3825 -0.5625 2.0625 C-0.2325 2.7225 0.0975 3.3825 0.4375 4.0625 C-0.2225 4.0625 -0.8825 4.0625 -1.5625 4.0625 C-1.5625 5.0525 -1.5625 6.0425 -1.5625 7.0625 C-2.2225 7.0625 -2.8825 7.0625 -3.5625 7.0625 C-3.60504356 5.06295254 -3.60330783 3.06208364 -3.5625 1.0625 C-2.5625 0.0625 -2.5625 0.0625 0 0 Z " fill="#D3E1D6" transform="translate(392.5625,142.9375)"/>
<path d="M0 0 C0.99 0 1.98 0 3 0 C3 2.31 3 4.62 3 7 C2.01 7 1.02 7 0 7 C0 4.69 0 2.38 0 0 Z " fill="#E8E7E8" transform="translate(179,128)"/>
<path d="M0 0 C0.33 0 0.66 0 1 0 C1.08131463 1.43655854 1.13933559 2.8744483 1.1875 4.3125 C1.23970703 5.51326172 1.23970703 5.51326172 1.29296875 6.73828125 C0.93801608 9.47851584 0.10633718 10.29171079 -2 12 C-1.85904936 10.3745692 -1.71207913 8.74965949 -1.5625 7.125 C-1.48128906 6.22007812 -1.40007813 5.31515625 -1.31640625 4.3828125 C-1 2 -1 2 0 0 Z " fill="#D2DFD2" transform="translate(605,125)"/>
<path d="M0 0 C3.96 1.98 3.96 1.98 8 4 C8 4.99 8 5.98 8 7 C7.401875 6.690625 6.80375 6.38125 6.1875 6.0625 C3.91043228 4.89790296 3.91043228 4.89790296 1 4 C0.67 2.68 0.34 1.36 0 0 Z " fill="#D6E7D8" transform="translate(169,90)"/>
<path d="M0 0 C1.32 0.66 2.64 1.32 4 2 C0.5980513 4.09350689 -2.05272412 4.17942163 -6 4 C-5.67 3.34 -5.34 2.68 -5 2 C-3.67696283 1.6278958 -2.34262065 1.29369827 -1 1 C-0.67 0.67 -0.34 0.34 0 0 Z " fill="#D5E5D6" transform="translate(103,114)"/>
<path d="M0 0 C0.33 0 0.66 0 1 0 C1.08121924 1.60332791 1.13929134 3.20784026 1.1875 4.8125 C1.22230469 5.70582031 1.25710938 6.59914063 1.29296875 7.51953125 C0.95081002 10.41647515 0.24606427 11.22555028 -2 13 C-2 10.0845524 -1.59136731 7.65845519 -1 4.8125 C-0.814375 3.91144531 -0.62875 3.01039062 -0.4375 2.08203125 C-0.293125 1.39496094 -0.14875 0.70789063 0 0 Z " fill="#D2E7D1" transform="translate(600,85)"/>
<path d="M0 0 C1.32 0.33 2.64 0.66 4 1 C1.36 2.65 -1.28 4.3 -4 6 C-4.33 5.34 -4.66 4.68 -5 4 C-4.360625 3.71125 -3.72125 3.4225 -3.0625 3.125 C-0.84793921 2.17176549 -0.84793921 2.17176549 0 0 Z " fill="#D7E7D6" transform="translate(702,145)"/>
<path d="M0 0 C0.99 0 1.98 0 3 0 C4.35439668 2.70879335 4.06501451 5.00933268 4 8 C3.01 7.67 2.02 7.34 1 7 C1.20625 6.401875 1.4125 5.80375 1.625 5.1875 C2.30671915 2.71549154 2.30671915 2.71549154 0 0 Z " fill="#D4E6D4" transform="translate(258,139)"/>
<path d="M0 0 C0.66 0.33 1.32 0.66 2 1 C1.67 1.99 1.34 2.98 1 4 C-1.31 4.33 -3.62 4.66 -6 5 C-6 4.34 -6 3.68 -6 3 C-4.03533587 1.93224776 -2.03144641 0.93446535 0 0 Z " fill="#D4DED7" transform="translate(582,137)"/>
<path d="M0 0 C0.66 0 1.32 0 2 0 C2.125 3.375 2.125 3.375 2 7 C1.34 7.66 0.68 8.32 0 9 C-1.15941038 5.52176885 -0.70820884 3.54104422 0 0 Z " fill="#D5E0D4" transform="translate(689,102)"/>
<path d="M0 0 C-2.60691842 2.60691842 -4.37607794 2.70416963 -8 3 C-8.99 2.34 -9.98 1.68 -11 1 C-3.375 -1.125 -3.375 -1.125 0 0 Z " fill="#D8DDD1" transform="translate(350,90)"/>
</svg>
